<svg width="8" height="8" viewBox="0 0 8 8" fill="none" xmlns="http://www.w3.org/2000/svg">
<path fill-rule="evenodd" clip-rule="evenodd" d="M4 7.5C4.92826 7.5 5.8185 7.13125 6.47487 6.47487C7.13125 5.8185 7.5 4.92826 7.5 4C7.5 3.07174 7.13125 2.1815 6.47487 1.52513C5.8185 0.868749 4.92826 0.5 4 0.5C3.07174 0.5 2.1815 0.868749 1.52513 1.52513C0.868749 2.1815 0.5 3.07174 0.5 4C0.5 4.92826 0.868749 5.8185 1.52513 6.47487C2.1815 7.13125 3.07174 7.5 4 7.5ZM4 8C5.06087 8 6.07828 7.57857 6.82843 6.82843C7.57857 6.07828 8 5.06087 8 4C8 2.93913 7.57857 1.92172 6.82843 1.17157C6.07828 0.421427 5.06087 0 4 0C2.93913 0 1.92172 0.421427 1.17157 1.17157C0.421427 1.92172 0 2.93913 0 4C0 5.06087 0.421427 6.07828 1.17157 6.82843C1.92172 7.57857 2.93913 8 4 8Z" fill="#29B6F6"/>
<path fill-rule="evenodd" clip-rule="evenodd" d="M5.48496 2.48514C5.55493 2.41578 5.64939 2.37674 5.74792 2.37647C5.84645 2.37619 5.94113 2.41471 6.01148 2.48369C6.08184 2.55266 6.12222 2.64656 6.1239 2.74507C6.12558 2.84359 6.08842 2.93881 6.02046 3.01014L4.02446 5.50514C3.99015 5.54209 3.94875 5.57174 3.90272 5.59232C3.8567 5.6129 3.80699 5.62399 3.75658 5.62493C3.70617 5.62586 3.65609 5.61662 3.60933 5.59776C3.56258 5.57889 3.52011 5.55079 3.48446 5.51514L2.16196 4.19214C2.12511 4.15781 2.09556 4.11641 2.07507 4.07041C2.05457 4.02441 2.04355 3.97475 2.04266 3.9244C2.04177 3.87405 2.05103 3.82404 2.0699 3.77734C2.08876 3.73065 2.11683 3.68823 2.15244 3.65262C2.18805 3.61701 2.23046 3.58894 2.27716 3.57008C2.32385 3.55122 2.37387 3.54196 2.42422 3.54284C2.47457 3.54373 2.52423 3.55475 2.57023 3.57525C2.61623 3.59575 2.65763 3.6253 2.69196 3.66214L3.73896 4.70864L5.47546 2.49614C5.47856 2.49227 5.48189 2.48859 5.48546 2.48514H5.48496Z" fill="#29B6F6"/>
</svg>
