<svg width="16" height="16" viewBox="0 0 16 16" fill="none" xmlns="http://www.w3.org/2000/svg">
<path d="M15 7.5V7C15 3.13333 11.8667 0 8 0C4.13333 0 1 3.13333 1 7V7.5C0.4 7.96667 0 8.66667 0 9.5C0 10.8667 1.13333 12 2.5 12H3V7H2.5C2.2 7 1.93333 7.06667 1.66667 7.13333V7C1.66667 3.5 4.5 0.666667 8 0.666667C11.5 0.666667 14.3333 3.5 14.3333 7V7.13333C14.0667 7.03333 13.8 7 13.5 7H13V12H13.5C13.6667 12 13.8333 11.9667 14 11.9333V14C14 14.3667 13.7 14.6667 13.3333 14.6667H9.6C9.46667 14.2667 9.1 14 8.66667 14H7.66667C7.1 14 6.66667 14.4333 6.66667 15C6.66667 15.5333 7.1 16 7.66667 16H8.66667C9.1 16 9.46667 15.7333 9.6 15.3333H13.3333C14.0667 15.3333 14.6667 14.7333 14.6667 14V11.7C15.4667 11.2667 16 10.4333 16 9.5C16 8.7 15.6 7.96667 15 7.5Z" fill="white"/>
</svg>
