<svg width="1440" height="900" viewBox="0 0 1440 900" fill="none" xmlns="http://www.w3.org/2000/svg">
<path opacity="0.9" d="M-192.27 -238.949C-402.066 3.62482 -443.105 887.132 395.693 1154.99C1234.49 1422.85 2334.68 1082.3 2492.84 435.404C2650.03 -212.164 1958.86 297.65 1450.85 -65.3732C942.844 -428.397 213.202 -706.865 -192.27 -238.949Z" fill="url(#paint0_linear)"/>
<path opacity="0.2" d="M-257.644 163.943C-243.308 222.574 -112.958 368.868 18.5427 334.047C150.043 299.227 216.973 141.983 135.374 22.9518C53.5688 -96.0966 56.6592 50.4023 -53.6156 39.1093C-163.89 27.8164 -285.215 50.7729 -257.644 163.943Z" fill="url(#paint1_linear)"/>
<path opacity="0.21" d="M844.945 904.812C848.7 942.195 917.703 950.353 882.346 1029.98C859.591 1080.9 857.115 1153.53 943.869 1188.2C1030.62 1222.87 1124.68 1190.13 1220.26 1120.02C1315.85 1049.91 1122.27 1080.5 1118.93 964.648C1115.59 848.797 1049.17 821.087 964.573 830.24C879.978 839.393 840.713 862.988 844.945 904.812Z" fill="url(#paint2_linear)"/>
<path opacity="0.2" d="M176.019 360.77C240.967 333.131 232.093 212.667 385.093 226.556C482.985 235.678 612.467 198.379 644.557 32.9919C676.647 -132.396 586.859 -271.559 430.361 -391.963C273.863 -512.367 393.48 -204.94 189.399 -133.207C-14.6823 -61.4737 -41.3152 65.8143 3.49194 202.564C48.2991 339.314 103.365 391.745 176.019 360.77Z" fill="url(#paint3_linear)"/>
<circle opacity="0.1" cx="1212" cy="705" r="72" fill="url(#paint4_linear)"/>
<ellipse opacity="0.1" cx="183" cy="556.5" rx="72" ry="72.5" fill="url(#paint5_linear)"/>
<defs>
<linearGradient id="paint0_linear" x1="-521.167" y1="1153.21" x2="3952.02" y2="-866.738" gradientUnits="userSpaceOnUse">
<stop stop-color="#000064"/>
<stop offset="1" stop-color="#00D1FF" stop-opacity="0.44"/>
</linearGradient>
<linearGradient id="paint1_linear" x1="232.184" y1="-61.0141" x2="-157.535" y2="258.545" gradientUnits="userSpaceOnUse">
<stop stop-color="#6C63FF"/>
<stop offset="1" stop-color="#68E5FF"/>
</linearGradient>
<linearGradient id="paint2_linear" x1="821.528" y1="1099.74" x2="1180.54" y2="1098.11" gradientUnits="userSpaceOnUse">
<stop stop-color="#6D63FF" stop-opacity="0.62"/>
<stop offset="1" stop-color="#C6F5FF"/>
</linearGradient>
<linearGradient id="paint3_linear" x1="529.214" y1="288.807" x2="168.28" y2="-141.552" gradientUnits="userSpaceOnUse">
<stop stop-color="#6D63FF"/>
<stop offset="1" stop-color="#C6F5FF"/>
</linearGradient>
<linearGradient id="paint4_linear" x1="1211.3" y1="641.388" x2="1211.3" y2="748.34" gradientUnits="userSpaceOnUse">
<stop stop-color="#DFEDFF"/>
<stop offset="1" stop-color="#DFEDFF" stop-opacity="0"/>
</linearGradient>
<linearGradient id="paint5_linear" x1="182.301" y1="492.447" x2="182.301" y2="600.141" gradientUnits="userSpaceOnUse">
<stop stop-color="#DFEDFF"/>
<stop offset="1" stop-color="#DFEDFF" stop-opacity="0"/>
</linearGradient>
</defs>
</svg>
