<svg width="1440" height="1140" viewBox="0 0 1440 1140" fill="none" xmlns="http://www.w3.org/2000/svg">
<path opacity="0.4" d="M150.33 89.9871C58.0544 165.202 128.247 227.121 107.249 277.625C90.378 318.277 55.1715 330.106 -0.0646998 314.402L-0.0647043 0.000125146L215.508 0.000117948C202.677 37.3379 177.299 68.1118 150.33 89.9871Z" fill="url(#paint0_linear)"/>
<path opacity="0.4" d="M1050.35 847.68C1047.17 721.923 1194.83 663.857 1320.79 648.824C1375.31 642.319 1412.59 606.571 1442.62 577.736L1442.62 881.738L1058.87 881.738C1053.53 869.355 1050.62 857.659 1050.35 847.68Z" fill="url(#paint1_linear)"/>
<path opacity="0.4" d="M870.302 742.363C956.313 671.393 1055.68 654.644 1165.11 781.63C1274.43 908.505 1462.23 735.743 1420.01 882L786.318 882C774.454 843.809 802.678 798.162 870.302 742.363Z" fill="url(#paint2_linear)"/>
<defs>
<linearGradient id="paint0_linear" x1="-23.0645" y1="264" x2="264.436" y2="-176" gradientUnits="userSpaceOnUse">
<stop stop-color="#C6F5FF"/>
<stop offset="0.737025" stop-color="#6C63FF"/>
</linearGradient>
<linearGradient id="paint1_linear" x1="1037.62" y1="989.238" x2="1290.62" y2="572.738" gradientUnits="userSpaceOnUse">
<stop stop-color="#6C63FF"/>
<stop offset="1" stop-color="#C6F5FF"/>
</linearGradient>
<linearGradient id="paint2_linear" x1="657.329" y1="1044.5" x2="1221.83" y2="767.5" gradientUnits="userSpaceOnUse">
<stop stop-color="#6C63FF"/>
<stop offset="1" stop-color="#C6F5FF"/>
</linearGradient>
</defs>
</svg>
