<svg width="25" height="17" viewBox="0 0 25 17" fill="none" xmlns="http://www.w3.org/2000/svg">
<path d="M15.5895 7.45607C15.6787 8.18562 16.1844 8.77108 16.8532 8.9159V10.9564C16.4704 10.8172 16.2214 10.4315 16.2214 9.975C16.2214 9.77818 16.0936 9.625 15.9052 9.625C15.7169 9.625 15.5891 9.77818 15.5891 9.975C15.5891 10.8036 16.1143 11.5418 16.8532 11.6915V12C16.8532 12.0847 16.8783 12.1598 16.9268 12.2144C16.9758 12.2696 17.0452 12.3 17.125 12.3C17.2048 12.3 17.2742 12.2696 17.3232 12.2144C17.3717 12.1598 17.3968 12.0847 17.3968 12V11.6923C18.2264 11.5392 18.772 10.6489 18.6605 9.74393C18.5713 9.01438 18.0656 8.42891 17.3968 8.2841V6.2436C17.7796 6.3828 18.0286 6.7685 18.0286 7.225C18.0286 7.42182 18.1564 7.575 18.3448 7.575C18.5331 7.575 18.6609 7.42182 18.6609 7.225C18.6609 6.39635 18.1357 5.65816 17.3968 5.50847V5C17.3968 4.91531 17.3717 4.8402 17.3232 4.78557C17.2742 4.7304 17.2048 4.7 17.125 4.7C17.0452 4.7 16.9758 4.7304 16.9268 4.78557C16.8783 4.8402 16.8532 4.91531 16.8532 5V5.50772C16.0236 5.66077 15.478 6.55111 15.5895 7.45607ZM15.5895 7.45607L15.6391 7.45M15.5895 7.45607C15.5895 7.45609 15.5895 7.4561 15.5895 7.45611L15.6391 7.45M15.6391 7.45C15.7278 8.175 16.2379 8.75 16.9032 8.875M15.6391 7.45C15.5282 6.55 16.0827 5.675 16.9032 5.55V8.875M16.9032 8.875V10.9729V8.875ZM16.2214 7.2C16.2214 6.74612 16.4877 6.36032 16.8532 6.21978V8.18498C16.472 8.06752 16.2214 7.68251 16.2214 7.2ZM18.0286 9.975C18.0286 10.4289 17.7623 10.8147 17.3968 10.9552V8.99478C17.7623 9.13532 18.0286 9.52112 18.0286 9.975Z" fill="white" stroke="white" stroke-width="0.1"/>
<path d="M17.125 16.05C21.2888 16.05 24.675 12.6638 24.675 8.5C24.675 4.33617 21.2888 0.949999 17.125 0.949999C12.9612 0.95 9.575 4.33617 9.575 8.5C9.575 12.6638 12.9612 16.05 17.125 16.05ZM17.125 1.64801C20.9097 1.64801 23.977 4.71532 23.977 8.5C23.977 12.2847 20.9097 15.352 17.125 15.352C13.3403 15.352 10.273 12.2847 10.273 8.5C10.273 4.71532 13.3403 1.64801 17.125 1.64801Z" fill="white" stroke="white" stroke-width="0.1"/>
<path d="M17.125 14.175C20.2561 14.175 22.8 11.6311 22.8 8.5C22.8 5.36894 20.2561 2.825 17.125 2.825C13.9939 2.825 11.45 5.36894 11.45 8.5C11.45 11.6311 13.9939 14.175 17.125 14.175ZM17.125 3.5069C19.8856 3.5069 22.1181 5.73936 22.1181 8.5C22.1181 11.2606 19.8856 13.4931 17.125 13.4931C14.3644 13.4931 12.1319 11.2606 12.1319 8.5C12.1319 5.73936 14.3644 3.5069 17.125 3.5069Z" fill="white" stroke="white" stroke-width="0.1"/>
<path d="M6.69492 7.7L1.30508 7.7C1.09036 7.7 0.95 7.88877 0.95 8.125C0.95 8.36123 1.09036 8.55 1.30508 8.55L6.69492 8.55C6.90964 8.55 7.05 8.36123 7.05 8.125C7.05 7.8859 6.88181 7.7 6.69492 7.7Z" fill="white" stroke="white" stroke-width="0.1"/>
<path d="M7.07666 3.57524L3.17334 3.57524C2.96164 3.57524 2.825 3.76515 2.825 4.00024C2.825 4.23534 2.96164 4.42524 3.17334 4.42524L7.07666 4.42524C7.28837 4.42524 7.425 4.23534 7.425 4.00024C7.425 3.89609 7.39066 3.79171 7.33107 3.7124C7.27129 3.63284 7.18314 3.57524 7.07666 3.57524Z" fill="white" stroke="white" stroke-width="0.1"/>
<path d="M7.07666 11.8248L3.17334 11.8248C2.96164 11.8248 2.825 12.0147 2.825 12.2498C2.825 12.4849 2.96164 12.6748 3.17334 12.6748L7.07666 12.6748C7.28837 12.6748 7.425 12.4848 7.425 12.2498C7.425 12.0147 7.28837 11.8248 7.07666 11.8248Z" fill="white" stroke="white" stroke-width="0.1"/>
</svg>
