<svg width="34" height="34" viewBox="0 0 34 34" fill="none" xmlns="http://www.w3.org/2000/svg">
<path d="M6.54903 0C3.15215 0 0.416992 2.71629 0.416992 6.08973V27.2615C0.416992 30.635 3.15215 33.3513 6.54903 33.3513H18.1037V20.313H14.632V15.6188H18.1037V11.6083C18.1037 8.45747 20.1549 5.56445 24.88 5.56445C26.7932 5.56445 28.2079 5.74685 28.2079 5.74685L28.0966 10.1305C28.0966 10.1305 26.6538 10.1169 25.0794 10.1169C23.3755 10.1169 23.1022 10.8966 23.1022 12.191V15.6188H28.232L28.0085 20.313H23.1022V33.3513H27.8678C31.2647 33.3513 33.9999 30.635 33.9999 27.2616V6.08977C33.9999 2.71632 31.2647 3.33512e-05 27.8678 3.33512e-05H6.54899L6.54903 0Z" fill="#000064"/>
</svg>
