<svg width="32" height="29" viewBox="0 0 32 29" fill="none" xmlns="http://www.w3.org/2000/svg">
<path d="M6.34936 0C3.29381 0 0.833496 2.3619 0.833496 5.29522V23.7048C0.833496 26.6381 3.29381 29 6.34936 29H16.7429V17.6628H13.6201V13.581H16.7429V10.0938C16.7429 7.35404 18.588 4.83847 22.8384 4.83847C24.5593 4.83847 25.8319 4.99707 25.8319 4.99707L25.7318 8.80876C25.7318 8.80876 24.4339 8.79699 23.0177 8.79699C21.485 8.79699 21.2392 9.47495 21.2392 10.6004V13.5811H25.8535L25.6525 17.6628H21.2392V29H25.526C28.5815 29 31.0418 26.6381 31.0418 23.7048V5.29524C31.0418 2.36193 28.5815 2.89999e-05 25.526 2.89999e-05H6.34933L6.34936 0Z" fill="#000064"/>
</svg>
