<svg width="32" height="32" viewBox="0 0 32 32" fill="none" xmlns="http://www.w3.org/2000/svg">
<path d="M9.33333 20H18.6667V22.6667H9.33333V20ZM9.33333 14.6667H22.6667V17.3334H9.33333V14.6667ZM9.33333 9.33337H22.6667V12H9.33333V9.33337ZM25.3333 4.00004H19.76C19.2 2.45337 17.7333 1.33337 16 1.33337C14.2667 1.33337 12.8 2.45337 12.24 4.00004H6.66667C6.48 4.00004 6.30667 4.01337 6.13333 4.05337C5.61333 4.16004 5.14667 4.42671 4.78667 4.78671C4.54667 5.02671 4.34667 5.32004 4.21333 5.64004C4.08 5.94671 4 6.29337 4 6.66671V25.3334C4 25.6934 4.08 26.0534 4.21333 26.3734C4.34667 26.6934 4.54667 26.9734 4.78667 27.2267C5.14667 27.5867 5.61333 27.8534 6.13333 27.96C6.30667 27.9867 6.48 28 6.66667 28H25.3333C26.8 28 28 26.8 28 25.3334V6.66671C28 5.20004 26.8 4.00004 25.3333 4.00004ZM16 3.66671C16.5467 3.66671 17 4.12004 17 4.66671C17 5.21337 16.5467 5.66671 16 5.66671C15.4533 5.66671 15 5.21337 15 4.66671C15 4.12004 15.4533 3.66671 16 3.66671ZM25.3333 25.3334H6.66667V6.66671H25.3333V25.3334Z" fill="#008DFF"/>
</svg>
