<svg width="34" height="34" viewBox="0 0 34 34" fill="none" xmlns="http://www.w3.org/2000/svg">
<path d="M16.9954 8.11943C12.2277 8.11943 8.37996 11.9407 8.37996 16.6756C8.37996 21.4106 12.2277 25.2319 16.9954 25.2319C21.7631 25.2319 25.6109 21.4106 25.6109 16.6756C25.6109 11.9407 21.7631 8.11943 16.9954 8.11943ZM16.9954 22.2366C13.9122 22.2366 11.396 19.7377 11.396 16.6756C11.396 13.6136 13.9122 11.1147 16.9954 11.1147C20.0787 11.1147 22.5949 13.6136 22.5949 16.6756C22.5949 19.7377 20.0787 22.2366 16.9954 22.2366ZM25.9638 5.77492C24.8506 5.77492 23.9517 6.66767 23.9517 7.77317C23.9517 8.87868 24.8506 9.77143 25.9638 9.77143C27.0769 9.77143 27.9759 8.88285 27.9759 7.77317C27.9762 7.51067 27.9244 7.25067 27.8234 7.00808C27.7224 6.7655 27.5742 6.54508 27.3873 6.35946C27.2004 6.17384 26.9784 6.02666 26.7342 5.92635C26.4899 5.82605 26.2281 5.77459 25.9638 5.77492ZM33.7895 16.6756C33.7895 14.3729 33.8105 12.0909 33.6803 9.79229C33.5501 7.12238 32.9368 4.75284 30.9709 2.80047C29.0008 0.84393 26.6191 0.239029 23.9307 0.109706C21.6119 -0.0196179 19.3142 0.00124086 16.9996 0.00124086C14.6809 0.00124086 12.3831 -0.0196179 10.0686 0.109706C7.38021 0.239029 4.99425 0.848102 3.02836 2.80047C1.05827 4.75701 0.449181 7.12238 0.318962 9.79229C0.188742 12.0951 0.209746 14.377 0.209746 16.6756C0.209746 18.9743 0.188742 21.2604 0.318962 23.559C0.449181 26.2289 1.06247 28.5984 3.02836 30.5508C4.99846 32.5074 7.38021 33.1123 10.0686 33.2416C12.3874 33.3709 14.6851 33.3501 16.9996 33.3501C19.3184 33.3501 21.6161 33.3709 23.9307 33.2416C26.6191 33.1123 29.005 32.5032 30.9709 30.5508C32.941 28.5943 33.5501 26.2289 33.6803 23.559C33.8147 21.2604 33.7895 18.9784 33.7895 16.6756ZM30.093 26.5126C29.7863 27.2718 29.4167 27.8392 28.8244 28.4232C28.2321 29.0115 27.665 29.3786 26.9005 29.6831C24.691 30.555 19.4444 30.3589 16.9954 30.3589C14.5465 30.3589 9.29569 30.555 7.08616 29.6873C6.32165 29.3827 5.75037 29.0156 5.16228 28.4274C4.56999 27.8392 4.20034 27.276 3.89369 26.5168C3.01996 24.3183 3.21739 19.1078 3.21739 16.6756C3.21739 14.2435 3.01996 9.02886 3.89369 6.83453C4.20034 6.07528 4.56999 5.50793 5.16228 4.92388C5.75457 4.33984 6.32165 3.96856 7.08616 3.66402C9.29569 2.7963 14.5465 2.99237 16.9954 2.99237C19.4444 2.99237 24.6952 2.7963 26.9047 3.66402C27.6692 3.96856 28.2405 4.33567 28.8286 4.92388C29.4209 5.5121 29.7905 6.07528 30.0972 6.83453C30.9709 9.02886 30.7735 14.2435 30.7735 16.6756C30.7735 19.1078 30.9709 24.3183 30.093 26.5126Z" fill="#000064"/>
</svg>
