<svg width="31" height="29" viewBox="0 0 31 29" fill="none" xmlns="http://www.w3.org/2000/svg">
<path d="M15.1001 7.0601C10.8115 7.0601 7.35035 10.3828 7.35035 14.5C7.35035 18.6172 10.8115 21.9399 15.1001 21.9399C19.3887 21.9399 22.8499 18.6172 22.8499 14.5C22.8499 10.3828 19.3887 7.0601 15.1001 7.0601ZM15.1001 19.3354C12.3267 19.3354 10.0633 17.1625 10.0633 14.5C10.0633 11.8375 12.3267 9.66461 15.1001 9.66461C17.8735 9.66461 20.1369 11.8375 20.1369 14.5C20.1369 17.1625 17.8735 19.3354 15.1001 19.3354ZM23.1673 5.02147C22.166 5.02147 21.3573 5.79775 21.3573 6.75902C21.3573 7.72029 22.166 8.49657 23.1673 8.49657C24.1686 8.49657 24.9772 7.72392 24.9772 6.75902C24.9775 6.53076 24.9309 6.30469 24.84 6.09375C24.7492 5.88281 24.6159 5.69115 24.4477 5.52975C24.2796 5.36834 24.08 5.24037 23.8602 5.15315C23.6405 5.06593 23.405 5.02118 23.1673 5.02147ZM30.2066 14.5C30.2066 12.4976 30.2255 10.5134 30.1084 8.51471C29.9913 6.19314 29.4396 4.13275 27.6713 2.4351C25.8991 0.733824 23.7567 0.207844 21.3385 0.0953926C19.2527 -0.0170583 17.1859 0.00107896 15.1039 0.00107896C13.0181 0.00107896 10.9513 -0.0170583 8.86932 0.0953926C6.45107 0.207844 4.30486 0.737451 2.53651 2.4351C0.764386 4.13637 0.2165 6.19314 0.0993655 8.51471C-0.0177688 10.5171 0.0011239 12.5013 0.0011239 14.5C0.0011239 16.4987 -0.0177688 18.4866 0.0993655 20.4853C0.2165 22.8069 0.768164 24.8673 2.53651 26.5649C4.30864 28.2662 6.45107 28.7922 8.86932 28.9046C10.9551 29.0171 13.0219 28.9989 15.1039 28.9989C17.1896 28.9989 19.2565 29.0171 21.3385 28.9046C23.7567 28.7922 25.9029 28.2625 27.6713 26.5649C29.4434 24.8636 29.9913 22.8069 30.1084 20.4853C30.2293 18.4866 30.2066 16.5024 30.2066 14.5ZM26.8815 23.0535C26.6057 23.7137 26.2732 24.2071 25.7404 24.7149C25.2077 25.2264 24.6976 25.5456 24.0099 25.8104C22.0224 26.5685 17.303 26.398 15.1001 26.398C12.8972 26.398 8.17407 26.5685 6.18657 25.814C5.49888 25.5492 4.985 25.23 4.456 24.7185C3.92323 24.2071 3.59072 23.7174 3.31489 23.0572C2.52896 21.1455 2.70655 16.6148 2.70655 14.5C2.70655 12.3852 2.52896 7.85088 3.31489 5.94284C3.59072 5.28265 3.92323 4.78931 4.456 4.28147C4.98878 3.77363 5.49888 3.45078 6.18657 3.18598C8.17407 2.43147 12.8972 2.60196 15.1001 2.60196C17.303 2.60196 22.0261 2.43147 24.0136 3.18598C24.7013 3.45078 25.2152 3.77 25.7442 4.28147C26.277 4.79294 26.6095 5.28265 26.8853 5.94284C27.6713 7.85088 27.4937 12.3852 27.4937 14.5C27.4937 16.6148 27.6713 21.1455 26.8815 23.0535Z" fill="#000064"/>
</svg>
