<svg width="18" height="11" viewBox="0 0 18 11" fill="none" xmlns="http://www.w3.org/2000/svg">
<path fill-rule="evenodd" clip-rule="evenodd" d="M11.8942 0.214485C11.962 0.146496 12.0426 0.0925542 12.1313 0.0557493C12.2199 0.0189444 12.315 0 12.4111 0C12.5071 0 12.6022 0.0189444 12.6909 0.0557493C12.7796 0.0925542 12.8601 0.146496 12.928 0.214485L17.3084 4.5949C17.3764 4.66272 17.4303 4.74328 17.4671 4.83198C17.5039 4.92068 17.5229 5.01576 17.5229 5.11179C17.5229 5.20782 17.5039 5.30291 17.4671 5.3916C17.4303 5.4803 17.3764 5.56086 17.3084 5.62868L12.928 10.0091C12.7909 10.1462 12.6049 10.2232 12.4111 10.2232C12.2172 10.2232 12.0313 10.1462 11.8942 10.0091C11.7571 9.87201 11.6801 9.68608 11.6801 9.49221C11.6801 9.29834 11.7571 9.11241 11.8942 8.97532L15.7592 5.11179L11.8942 1.24826C11.8262 1.18045 11.7722 1.09988 11.7354 1.01119C11.6986 0.92249 11.6797 0.827404 11.6797 0.731374C11.6797 0.635345 11.6986 0.540259 11.7354 0.451563C11.7722 0.362866 11.8262 0.282302 11.8942 0.214485Z" fill="#6C63FF"/>
<path fill-rule="evenodd" clip-rule="evenodd" d="M0 5.11197C0 4.91834 0.076918 4.73264 0.213833 4.59573C0.350747 4.45881 0.536443 4.3819 0.73007 4.3819H16.0615C16.2552 4.3819 16.4409 4.45881 16.5778 4.59573C16.7147 4.73264 16.7916 4.91834 16.7916 5.11197C16.7916 5.30559 16.7147 5.49129 16.5778 5.6282C16.4409 5.76512 16.2552 5.84204 16.0615 5.84204H0.73007C0.536443 5.84204 0.350747 5.76512 0.213833 5.6282C0.076918 5.49129 0 5.30559 0 5.11197Z" fill="#6C63FF"/>
</svg>
