<svg width="671" height="635" viewBox="0 0 171 135" fill="none" xmlns="http://www.w3.org/2000/svg">
<g opacity="0.5">
<path opacity="0.5" d="M69.3712 0H10.3144C9.86329 0 9.49756 0.364789 9.49756 0.81478V90.6905C9.49756 91.1404 9.86329 91.5052 10.3144 91.5052H69.3712C69.8223 91.5052 70.188 91.1404 70.188 90.6905V0.81478C70.188 0.364789 69.8223 0 69.3712 0Z" fill="url(#paint0_linear)"/>
</g>
<path d="M68.5923 0.671875H11.0913C10.6401 0.671875 10.2744 1.03666 10.2744 1.48666V89.5119C10.2744 89.9619 10.6401 90.3267 11.0913 90.3267H68.5923C69.0435 90.3267 69.4092 89.9619 69.4092 89.5119V1.48666C69.4092 1.03666 69.0435 0.671875 68.5923 0.671875Z" fill="#F2F2F2"/>
<g opacity="0.5">
<path opacity="0.5" d="M27.1984 17.1882H17.0056C16.5545 17.1882 16.1887 17.553 16.1887 18.003V26.9909C16.1887 27.4409 16.5545 27.8057 17.0056 27.8057H27.1984C27.6496 27.8057 28.0153 27.4409 28.0153 26.9909V18.003C28.0153 17.553 27.6496 17.1882 27.1984 17.1882Z" fill="#6C63FF"/>
</g>
<path d="M62.985 17.1882H32.0761C31.7934 17.1882 31.5642 17.4168 31.5642 17.6988V17.8582C31.5642 18.1402 31.7934 18.3688 32.0761 18.3688H62.985C63.2677 18.3688 63.4969 18.1402 63.4969 17.8582V17.6988C63.4969 17.4168 63.2677 17.1882 62.985 17.1882Z" fill="#E0E0E0"/>
<path d="M57.5972 20.7261H32.0761C31.7934 20.7261 31.5642 20.9547 31.5642 21.2367V21.396C31.5642 21.678 31.7934 21.9066 32.0761 21.9066H57.5972C57.88 21.9066 58.1091 21.678 58.1091 21.396V21.2367C58.1091 20.9547 57.88 20.7261 57.5972 20.7261Z" fill="#E0E0E0"/>
<g opacity="0.5">
<path opacity="0.5" d="M27.1984 33.7029H17.0056C16.5545 33.7029 16.1887 34.0677 16.1887 34.5177V43.5056C16.1887 43.9556 16.5545 44.3204 17.0056 44.3204H27.1984C27.6496 44.3204 28.0153 43.9556 28.0153 43.5056V34.5177C28.0153 34.0677 27.6496 33.7029 27.1984 33.7029Z" fill="#6C63FF"/>
</g>
<path d="M62.985 33.7029H32.0761C31.7934 33.7029 31.5642 33.9315 31.5642 34.2135V34.3728C31.5642 34.6548 31.7934 34.8834 32.0761 34.8834H62.985C63.2677 34.8834 63.4969 34.6548 63.4969 34.3728V34.2135C63.4969 33.9315 63.2677 33.7029 62.985 33.7029Z" fill="#E0E0E0"/>
<path d="M62.985 37.241H32.0761C31.7934 37.241 31.5642 37.4696 31.5642 37.7516V37.9109C31.5642 38.1929 31.7934 38.4215 32.0761 38.4215H62.985C63.2677 38.4215 63.4969 38.1929 63.4969 37.9109V37.7516C63.4969 37.4696 63.2677 37.241 62.985 37.241Z" fill="#E0E0E0"/>
<g opacity="0.5">
<path opacity="0.5" d="M27.1984 50.2175H17.0056C16.5545 50.2175 16.1887 50.5823 16.1887 51.0323V60.0202C16.1887 60.4702 16.5545 60.835 17.0056 60.835H27.1984C27.6496 60.835 28.0153 60.4702 28.0153 60.0202V51.0323C28.0153 50.5823 27.6496 50.2175 27.1984 50.2175Z" fill="#6C63FF"/>
</g>
<path d="M62.985 50.2175H32.0761C31.7934 50.2175 31.5642 50.4461 31.5642 50.7281V50.8875C31.5642 51.1695 31.7934 51.3981 32.0761 51.3981H62.985C63.2677 51.3981 63.4969 51.1695 63.4969 50.8875V50.7281C63.4969 50.4461 63.2677 50.2175 62.985 50.2175Z" fill="#E0E0E0"/>
<path d="M34.6012 53.7573H32.0761C31.7934 53.7573 31.5642 53.9859 31.5642 54.2679V54.4273C31.5642 54.7093 31.7934 54.9379 32.0761 54.9379H34.6012C34.8839 54.9379 35.1131 54.7093 35.1131 54.4273V54.2679C35.1131 53.9859 34.8839 53.7573 34.6012 53.7573Z" fill="#E0E0E0"/>
<g opacity="0.5">
<path opacity="0.5" d="M106.227 29.4624H48.0798C47.6287 29.4624 47.2629 29.8272 47.2629 30.2772V82.434C47.2629 82.884 47.6287 83.2487 48.0798 83.2487H106.227C106.678 83.2487 107.044 82.884 107.044 82.434V30.2772C107.044 29.8272 106.678 29.4624 106.227 29.4624Z" fill="url(#paint1_linear)"/>
</g>
<path d="M105.405 30.002H49.0036C48.5525 30.002 48.1868 30.3667 48.1868 30.8167V81.2842C48.1868 81.7342 48.5525 82.099 49.0036 82.099H105.405C105.856 82.099 106.221 81.7342 106.221 81.2842V30.8167C106.221 30.3667 105.856 30.002 105.405 30.002Z" fill="white"/>
<g opacity="0.5">
<path opacity="0.5" d="M65.5373 41.1953H54.7019C54.2507 41.1953 53.885 41.5601 53.885 42.0101V51.5738C53.885 52.0238 54.2507 52.3886 54.7019 52.3886H65.5373C65.9885 52.3886 66.3542 52.0238 66.3542 51.5738V42.0101C66.3542 41.5601 65.9885 41.1953 65.5373 41.1953Z" fill="#6C63FF"/>
</g>
<path d="M103.221 41.1953H70.6364C70.3376 41.1953 70.0955 41.4369 70.0955 41.7349V41.8996C70.0955 42.1976 70.3376 42.4392 70.6364 42.4392H103.221C103.52 42.4392 103.762 42.1976 103.762 41.8996V41.7349C103.762 41.4369 103.52 41.1953 103.221 41.1953Z" fill="#E0E0E0"/>
<path d="M103.221 44.927H70.6364C70.3376 44.927 70.0955 45.1686 70.0955 45.4666V45.6313C70.0955 45.9293 70.3376 46.1709 70.6364 46.1709H103.221C103.52 46.1709 103.762 45.9293 103.762 45.6313V45.4666C103.762 45.1686 103.52 44.927 103.221 44.927Z" fill="#E0E0E0"/>
<path d="M103.221 58.4685H53.1787C52.8799 58.4685 52.6377 58.7101 52.6377 59.0081V59.1728C52.6377 59.4708 52.8799 59.7124 53.1787 59.7124H103.221C103.519 59.7124 103.762 59.4708 103.762 59.1728V59.0081C103.762 58.7101 103.519 58.4685 103.221 58.4685Z" fill="#E0E0E0"/>
<path d="M103.221 62.2002H53.1787C52.8799 62.2002 52.6377 62.4418 52.6377 62.7398V62.9045C52.6377 63.2025 52.8799 63.4441 53.1787 63.4441H103.221C103.519 63.4441 103.762 63.2025 103.762 62.9045V62.7398C103.762 62.4418 103.519 62.2002 103.221 62.2002Z" fill="#E0E0E0"/>
<path d="M103.221 67.1741H53.1787C52.8799 67.1741 52.6377 67.4157 52.6377 67.7136V67.8784C52.6377 68.1764 52.8799 68.418 53.1787 68.418H103.221C103.519 68.418 103.762 68.1764 103.762 67.8784V67.7136C103.762 67.4157 103.519 67.1741 103.221 67.1741Z" fill="#E0E0E0"/>
<path d="M90.7514 70.9058H53.1787C52.8799 70.9058 52.6377 71.1473 52.6377 71.4453V71.6101C52.6377 71.9081 52.8799 72.1497 53.1787 72.1497H90.7514C91.0502 72.1497 91.2924 71.9081 91.2924 71.6101V71.4453C91.2924 71.1473 91.0502 70.9058 90.7514 70.9058Z" fill="#E0E0E0"/>
<g opacity="0.5">
<path opacity="0.5" d="M108.489 49.5894L108.701 48.6443L108.403 49.5677C100.661 47.4819 92.6795 46.4082 84.6595 46.3738C26.8753 46.0334 0 96.9716 0 96.9716L54.7599 125.789C54.7599 125.789 61.4765 105.014 85.3312 105.692C86.972 105.736 88.6087 105.879 90.2325 106.119L82.9749 128.667C82.6648 129.107 82.4464 129.605 82.3328 130.131C82.2192 130.657 82.2126 131.2 82.3135 131.729C82.4144 132.258 82.6206 132.761 82.9201 133.208C83.2195 133.656 83.606 134.039 84.0567 134.335C84.5073 134.631 85.0129 134.833 85.5435 134.931C86.0742 135.028 86.619 135.018 87.1457 134.901C87.6724 134.785 88.1702 134.564 88.6097 134.252C89.0492 133.94 89.4214 133.543 89.7042 133.084V133.074C90.0809 132.463 90.2859 131.763 90.2978 131.046C90.2978 130.924 90.2978 130.803 90.2851 130.684L95.5313 107.301C111.161 112.096 115.897 125.788 115.897 125.788L171 98.3115C171 98.3115 150.306 60.9167 108.489 49.5894Z" fill="url(#paint2_linear)"/>
</g>
<path d="M84.6704 46.9386C27.6232 46.6073 1.08911 96.8919 1.08911 96.8919L55.152 125.339C55.152 125.339 61.785 104.828 85.3348 105.489C86.9935 105.534 88.6479 105.68 90.2887 105.927L108.191 50.1145C100.523 48.0408 92.6156 46.9732 84.6704 46.9386Z" fill="#C2E798"/>
<path d="M108.191 50.1145L90.2888 105.932C109.825 108.893 115.516 125.339 115.516 125.339L169.911 98.2155C169.911 98.2155 149.473 61.2969 108.191 50.1145Z" fill="#E0E0E0"/>
<path d="M90.2306 130.175L108.405 49.1802L83.0058 128.183C82.6946 128.617 82.4745 129.11 82.3587 129.631C82.2429 130.153 82.2336 130.692 82.3316 131.217C82.4296 131.742 82.6328 132.241 82.929 132.686C83.2252 133.131 83.6083 133.512 84.0554 133.805C84.5025 134.099 85.0044 134.299 85.5311 134.395C86.0577 134.491 86.5983 134.479 87.1205 134.362C87.6426 134.244 88.1356 134.022 88.5699 133.71C89.0041 133.398 89.3708 133.002 89.6479 132.545V132.534C90.0197 131.932 90.2222 131.24 90.2343 130.533C90.2452 130.408 90.2397 130.292 90.2306 130.175Z" fill="#535461"/>
<g opacity="0.7">
<path opacity="0.7" d="M96.8003 46.8427L96.3247 46.754L97.2632 43.3138C98.7408 32.269 93.1588 31.1482 91.0658 31.1102C90.8251 31.0224 90.5796 30.948 90.3306 30.8875V29.5838C91.6475 29.2597 92.8402 28.5577 93.7614 27.5646C94.6825 26.5716 95.2915 25.331 95.5133 23.9963H95.5314C95.8636 23.9963 96.1341 23.4911 96.1341 22.8682C96.1471 22.5381 96.0549 22.2123 95.8709 21.9376C95.8951 21.6962 95.9072 21.4547 95.9072 21.2133C95.9078 20.2385 95.7097 19.2737 95.3249 18.3776C94.9401 17.4815 94.3767 16.6728 93.6689 16.0006C93.5723 15.5189 93.3995 15.0556 93.157 14.6281C92.6433 13.7228 91.7883 12.7849 92.1368 11.8053L89.8804 12.0371L89.8586 10.5542C89.1543 10.6809 88.8584 11.4939 88.4409 12.0733C87.4352 13.4675 85.4185 13.6612 84.0842 14.7476C83.6304 15.1097 82.6102 16.2396 82.8044 16.9765C81.9083 18.2061 81.4265 19.6877 81.4285 21.2079C81.4285 21.4493 81.4406 21.6907 81.4648 21.9321C81.2807 22.2069 81.1885 22.5326 81.2015 22.8628C81.2015 23.4857 81.472 23.9908 81.8042 23.9908H81.8224C82.0441 25.3255 82.6531 26.5661 83.5743 27.5592C84.4954 28.5523 85.6881 29.2543 87.005 29.5784V30.8821C86.756 30.9426 86.5105 31.0169 86.2698 31.1048C84.1768 31.1428 78.5948 32.2563 80.0724 43.3084L81.0109 46.7485L80.7877 46.7902C80.4556 46.852 80.139 46.9784 79.8559 47.1623C79.5728 47.3462 79.3288 47.5839 79.1378 47.8618C78.9468 48.1397 78.8126 48.4524 78.7428 48.7821C78.673 49.1118 78.669 49.4519 78.7309 49.7831L82.4396 69.5533C82.4775 69.7557 82.5944 69.9347 82.7645 70.0512C82.9347 70.1676 83.1443 70.2119 83.3472 70.1744L83.9989 70.0531V70.4369C83.6372 70.6151 83.3327 70.8906 83.1198 71.2323C82.9068 71.574 82.7938 71.9683 82.7936 72.3707V72.6151H87.1648V72.3707C87.1646 71.9973 87.0673 71.6304 86.8825 71.3057C86.6976 70.981 86.4315 70.7098 86.1101 70.5184V69.6583L86.7055 69.5479C86.9084 69.5101 87.0879 69.3935 87.2046 69.2238C87.3214 69.054 87.3658 68.845 87.3281 68.6426L83.8537 50.0692H93.4874L90.0166 68.6444C89.9789 68.8468 90.0233 69.0558 90.1401 69.2256C90.2568 69.3953 90.4363 69.5119 90.6392 69.5497L91.2346 69.6602V70.5202C90.9132 70.7116 90.6471 70.9829 90.4622 71.3075C90.2774 71.6322 90.1801 71.9991 90.18 72.3725V72.6169H94.5512V72.3725C94.5509 71.9701 94.4379 71.5758 94.225 71.2341C94.012 70.8925 93.7075 70.6169 93.3458 70.4387V70.0549L93.9975 70.1762C94.2004 70.2137 94.41 70.1694 94.5802 70.053C94.7503 69.9366 94.8672 69.7575 94.9051 69.5551L98.6519 49.5369C98.7078 49.2387 98.7043 48.9325 98.6415 48.6356C98.5787 48.3388 98.4579 48.0572 98.2859 47.807C98.114 47.5568 97.8942 47.3429 97.6393 47.1774C97.3844 47.0119 97.0993 46.8982 96.8003 46.8427Z" fill="url(#paint3_linear)"/>
</g>
<path d="M86.2077 67.5361H84.1782V70.2847H86.2077V67.5361Z" fill="#FDB797"/>
<path d="M93.1677 67.5361H91.1382V70.2847H93.1677V67.5361Z" fill="#FDB797"/>
<path d="M95.3442 44.9758H82.0037V49.7486H95.3442V44.9758Z" fill="#4D8AF0"/>
<g opacity="0.05">
<path opacity="0.05" d="M95.3442 44.9758H82.0037V49.7486H95.3442V44.9758Z" fill="black"/>
</g>
<path opacity="0.1" d="M82.0037 45.8431C82.0037 45.8431 86.9812 47.0001 88.673 47.0001C90.3649 47.0001 95.3424 45.8431 95.3424 45.8431V45.1189H82.0037V45.8431Z" fill="black"/>
<path d="M95.3424 45.6983C95.3424 45.6983 90.3649 46.8553 88.673 46.8553C86.9812 46.8553 82.0037 45.6983 82.0037 45.6983V37.7443C82.0037 35.98 82.7063 34.288 83.9571 33.0404C85.2078 31.7929 86.9042 31.092 88.673 31.092C90.4418 31.092 92.1382 31.7929 93.389 33.0404C94.6397 34.288 95.3424 35.98 95.3424 37.7443V45.6983Z" fill="#6C63FF"/>
<path d="M87.0793 27.7642H90.2688V31.5918C90.2688 31.9573 90.1232 32.3077 89.8642 32.5661C89.6051 32.8245 89.2537 32.9697 88.8874 32.9697H88.4626C88.0962 32.9697 87.7448 32.8245 87.4858 32.5661C87.2267 32.3077 87.0812 31.9573 87.0812 31.5918V27.7642H87.0793Z" fill="#D59274"/>
<path d="M86.5892 68.5249L83.7301 69.0572C83.4864 69.1011 83.2351 69.0472 83.0311 68.9071C82.8271 68.767 82.6868 68.5522 82.641 68.3094L79.2318 50.0873C79.157 49.6884 79.1616 49.2788 79.2456 48.8817C79.3295 48.4846 79.4911 48.1079 79.721 47.7731C79.9509 47.4383 80.2448 47.152 80.5857 46.9306C80.9266 46.7091 81.3079 46.5568 81.7079 46.4824L82.4449 46.3448C82.6886 46.3008 82.9399 46.3548 83.1439 46.4949C83.348 46.6349 83.4882 46.8498 83.5341 47.0925L87.3462 67.4312C87.369 67.5527 87.3674 67.6774 87.3417 67.7982C87.3159 67.9191 87.2664 68.0336 87.196 68.1353C87.1256 68.2369 87.0358 68.3237 86.9316 68.3906C86.8275 68.4574 86.7111 68.5031 86.5892 68.5249Z" fill="#4D8AF0"/>
<path d="M90.7497 68.5248L93.6088 69.0571C93.8525 69.101 94.1038 69.0471 94.3078 68.907C94.5118 68.7669 94.6521 68.5521 94.698 68.3093L98.1652 49.783C98.3005 49.0582 98.1416 48.3094 97.7236 47.7013C97.3056 47.0932 96.6626 46.6756 95.936 46.5402L94.894 46.3465C94.6503 46.3025 94.399 46.3565 94.195 46.4966C93.991 46.6366 93.8507 46.8515 93.8048 47.0943L89.9927 67.433C89.9702 67.5543 89.972 67.6788 89.9979 67.7994C90.0238 67.9201 90.0733 68.0344 90.1436 68.1358C90.214 68.2373 90.3037 68.3239 90.4078 68.3906C90.5118 68.4574 90.628 68.503 90.7497 68.5248Z" fill="#4D8AF0"/>
<path opacity="0.1" d="M87.0793 30.1758C88.1269 30.4329 89.2213 30.4329 90.2688 30.1758V27.9089H87.0793V30.1758Z" fill="black"/>
<path d="M88.6732 28.921C92.517 28.921 95.633 25.813 95.633 21.979C95.633 18.1451 92.517 15.0371 88.6732 15.0371C84.8294 15.0371 81.7134 18.1451 81.7134 21.979C81.7134 25.813 84.8294 28.921 88.6732 28.921Z" fill="#333333"/>
<path d="M88.673 30.2229C92.3564 30.2229 95.3424 27.2446 95.3424 23.5707C95.3424 19.8968 92.3564 16.9185 88.673 16.9185C84.9896 16.9185 82.0037 19.8968 82.0037 23.5707C82.0037 27.2446 84.9896 30.2229 88.673 30.2229Z" fill="#D59274"/>
<path d="M84.2693 15.7632C85.5527 14.7184 87.4933 14.532 88.459 13.1903C88.8602 12.6326 89.1452 11.8486 89.8223 11.7273L89.8422 13.1541L92.0206 12.9314C91.6847 13.8729 92.5071 14.7782 93.0027 15.6473C93.3668 16.2895 93.5658 17.0118 93.5817 17.7494C92.8284 18.2003 91.8935 17.7078 91.0548 17.4452C90.2162 17.1827 89.3721 17.1628 88.5134 17.1392C88.0753 17.1088 87.635 17.1332 87.2028 17.2117C86.8288 17.3118 86.4644 17.4445 86.1137 17.6082C85.5364 17.849 83.712 18.7598 83.1765 18.1731C82.5739 17.5086 83.7737 16.1669 84.2693 15.7632Z" fill="#333333"/>
<path opacity="0.1" d="M84.6322 20.2337C84.9968 20.4331 85.3983 20.5564 85.8122 20.5958C87.5208 20.8289 89.2607 20.6341 90.875 20.0291C91.14 20.6972 91.7827 21.1571 92.4707 21.3744C93.1587 21.5917 93.8884 21.6025 94.6091 21.6134C94.7674 21.6312 94.9275 21.6009 95.0683 21.5265C95.3896 21.311 95.2335 20.8149 95.0466 20.4781L94.1171 18.7979C93.843 18.3018 93.5598 17.7948 93.1351 17.42C92.6014 16.9492 91.8934 16.7283 91.1963 16.5889C89.5465 16.2613 87.8432 16.3176 86.2188 16.7537C84.4816 17.2118 82.2506 18.7961 84.6322 20.2337Z" fill="black"/>
<path d="M84.6322 20.0889C84.9968 20.2884 85.3983 20.4116 85.8122 20.4511C87.5208 20.6841 89.2607 20.4894 90.875 19.8843C91.14 20.5525 91.7827 21.0123 92.4707 21.2296C93.1587 21.4469 93.8884 21.4578 94.6091 21.4686C94.7674 21.4864 94.9275 21.4562 95.0683 21.3817C95.3896 21.1663 95.2335 20.6701 95.0466 20.3334L94.1171 18.6531C93.843 18.157 93.5598 17.65 93.1351 17.2752C92.6014 16.8045 91.8934 16.5836 91.1963 16.4441C89.5465 16.1165 87.8432 16.1729 86.2188 16.6089C84.4816 17.0634 82.2506 18.6531 84.6322 20.0889Z" fill="#333333"/>
<path d="M95.2718 24.6552C95.5926 24.6552 95.8527 24.1696 95.8527 23.5706C95.8527 22.9717 95.5926 22.4861 95.2718 22.4861C94.951 22.4861 94.6909 22.9717 94.6909 23.5706C94.6909 24.1696 94.951 24.6552 95.2718 24.6552Z" fill="#D59274"/>
<path d="M82.0765 24.6552C82.3973 24.6552 82.6574 24.1696 82.6574 23.5706C82.6574 22.9717 82.3973 22.4861 82.0765 22.4861C81.7557 22.4861 81.4956 22.9717 81.4956 23.5706C81.4956 24.1696 81.7557 24.6552 82.0765 24.6552Z" fill="#D59274"/>
<path d="M87.1048 31.5339C87.1048 31.5339 78.6674 30.223 80.4082 43.2396L81.423 46.9713L84.3274 46.8554C84.3274 46.8554 82.4431 42.5099 83.6013 39.6238C84.7594 36.7377 87.1048 31.5339 87.1048 31.5339Z" fill="#6C63FF"/>
<path d="M90.2415 31.5339C90.2415 31.5339 98.6789 30.223 96.9381 43.2396L95.9233 46.9713L93.0188 46.8554C93.0188 46.8554 94.9031 42.5099 93.745 39.6238C92.5868 36.7377 90.2415 31.5339 90.2415 31.5339Z" fill="#6C63FF"/>
<path d="M83.0185 49.0244C83.8997 49.0244 84.6141 48.3118 84.6141 47.4328C84.6141 46.5539 83.8997 45.8413 83.0185 45.8413C82.1372 45.8413 81.4229 46.5539 81.4229 47.4328C81.4229 48.3118 82.1372 49.0244 83.0185 49.0244Z" fill="#D59274"/>
<path d="M94.6183 49.0244C95.4996 49.0244 96.214 48.3118 96.214 47.4328C96.214 46.5539 95.4996 45.8413 94.6183 45.8413C93.7371 45.8413 93.0227 46.5539 93.0227 47.4328C93.0227 48.3118 93.7371 49.0244 94.6183 49.0244Z" fill="#D59274"/>
<path d="M84.8411 69.1277H85.402C85.8835 69.1277 86.3452 69.3185 86.6856 69.658C87.026 69.9976 87.2173 70.4581 87.2173 70.9383V71.4344H83.0186V70.9383C83.0186 70.6999 83.0657 70.4639 83.1574 70.2438C83.2491 70.0236 83.3835 69.8237 83.5528 69.6555C83.7221 69.4872 83.9231 69.354 84.1442 69.2634C84.3653 69.1729 84.6021 69.1267 84.8411 69.1277Z" fill="#333333"/>
<path d="M91.9461 69.1277H92.507C92.9885 69.1277 93.4502 69.3185 93.7906 69.658C94.1311 69.9976 94.3223 70.4581 94.3223 70.9383V71.4344H90.1235V70.9383C90.1235 70.6999 90.1707 70.4639 90.2624 70.2438C90.3541 70.0236 90.4884 69.8237 90.6578 69.6555C90.8271 69.4872 91.0281 69.354 91.2492 69.2634C91.4703 69.1729 91.7071 69.1267 91.9461 69.1277Z" fill="#333333"/>
<path opacity="0.1" d="M83.454 38.4666C83.454 38.4666 82.8732 41.503 83.8897 42.812L83.454 38.4666Z" fill="black"/>
<path opacity="0.1" d="M93.8939 38.4666C93.8939 38.4666 94.4749 41.503 93.4583 42.812L93.8939 38.4666Z" fill="black"/>
<defs>
<linearGradient id="paint0_linear" x1="39.8419" y1="91.5052" x2="39.8419" y2="0" gradientUnits="userSpaceOnUse">
<stop stop-color="#808080" stop-opacity="0.25"/>
<stop offset="0.54" stop-color="#808080" stop-opacity="0.12"/>
<stop offset="1" stop-color="#808080" stop-opacity="0.1"/>
</linearGradient>
<linearGradient id="paint1_linear" x1="25455.4" y1="24759.3" x2="25455.4" y2="8781.58" gradientUnits="userSpaceOnUse">
<stop stop-color="#808080" stop-opacity="0.25"/>
<stop offset="0.54" stop-color="#808080" stop-opacity="0.12"/>
<stop offset="1" stop-color="#808080" stop-opacity="0.1"/>
</linearGradient>
<linearGradient id="paint2_linear" x1="102600" y1="73105.2" x2="102600" y2="29724.2" gradientUnits="userSpaceOnUse">
<stop stop-color="#808080" stop-opacity="0.25"/>
<stop offset="0.54" stop-color="#808080" stop-opacity="0.12"/>
<stop offset="1" stop-color="#808080" stop-opacity="0.1"/>
</linearGradient>
<linearGradient id="paint3_linear" x1="12433" y1="29789.5" x2="12433" y2="8516.25" gradientUnits="userSpaceOnUse">
<stop stop-color="#808080" stop-opacity="0.25"/>
<stop offset="0.54" stop-color="#808080" stop-opacity="0.12"/>
<stop offset="1" stop-color="#808080" stop-opacity="0.1"/>
</linearGradient>
</defs>
</svg>
