<svg width="17" height="17" viewBox="0 0 17 17" fill="none" xmlns="http://www.w3.org/2000/svg">
<path d="M8.5 16C12.6421 16 16 12.6421 16 8.5C16 4.35786 12.6421 1 8.5 1C4.35786 1 1 4.35786 1 8.5C1 12.6421 4.35786 16 8.5 16Z" stroke="white" stroke-linecap="round" stroke-linejoin="round"/>
<path d="M6.31738 6.24969C6.49371 5.74845 6.84175 5.32577 7.29985 5.05654C7.75795 4.78731 8.29655 4.6889 8.82027 4.77873C9.34398 4.86856 9.819 5.14084 10.1612 5.54734C10.5034 5.95384 10.6907 6.46834 10.6899 6.99969C10.6899 8.4997 8.43988 9.24969 8.43988 9.24969" stroke="white" stroke-linecap="round" stroke-linejoin="round"/>
<path d="M8.5 12.25H8.507" stroke="white" stroke-linecap="round" stroke-linejoin="round"/>
</svg>
