<svg width="16" height="16" viewBox="0 0 16 16" fill="none" xmlns="http://www.w3.org/2000/svg">
<path d="M2 4C3.09091 4 4 3.09091 4 2C4 0.909091 3.09091 0 2 0C0.909091 0 0 0.909091 0 2C0 3.09091 0.909091 4 2 4ZM2 0.909091C2.59091 0.909091 3.09091 1.40909 3.09091 2C3.09091 2.59091 2.59091 3.09091 2 3.09091C1.40909 3.09091 0.909091 2.59091 0.909091 2C0.909091 1.40909 1.40909 0.909091 2 0.909091Z" fill="white"/>
<path d="M2 10C3.09091 10 4 9.09091 4 8C4 6.90909 3.09091 6 2 6C0.909091 6 0 6.86364 0 8C0 9.09091 0.909091 10 2 10ZM2 6.90909C2.59091 6.90909 3.09091 7.40909 3.09091 8C3.09091 8.59091 2.59091 9.09091 2 9.09091C1.40909 9.09091 0.909091 8.59091 0.909091 8C0.909091 7.40909 1.40909 6.90909 2 6.90909Z" fill="white"/>
<path d="M2 16C3.09091 16 4 15.0909 4 14C4 12.9091 3.09091 12 2 12C0.909091 12 0 12.9091 0 14C0 15.0909 0.909091 16 2 16ZM2 12.9545C2.59091 12.9545 3.09091 13.4545 3.09091 14.0455C3.09091 14.6364 2.59091 15.1364 2 15.1364C1.40909 15.1364 0.909091 14.6364 0.909091 14.0455C0.909091 13.4545 1.40909 12.9545 2 12.9545Z" fill="white"/>
<path d="M6.41152 2H15.5885C15.8354 2 16 1.8 16 1.5C16 1.2 15.8354 1 15.5885 1H6.41152C6.16461 1 6 1.2 6 1.5C6 1.8 6.16461 2 6.41152 2Z" fill="white"/>
<path d="M6.41152 14H15.5885C15.8354 14 16 13.8 16 13.5C16 13.2 15.8354 13 15.5885 13H6.41152C6.16461 13 6 13.2 6 13.5C6 13.8 6.16461 14 6.41152 14Z" fill="white"/>
<path d="M6.41152 8H15.5885C15.8354 8 16 7.8 16 7.5C16 7.2 15.8354 7 15.5885 7H6.41152C6.16461 7 6 7.2 6 7.5C6 7.8 6.16461 8 6.41152 8Z" fill="white"/>
</svg>
