<svg width="32" height="32" viewBox="0 0 32 32" fill="none" xmlns="http://www.w3.org/2000/svg">
<path d="M16.6667 13.3334C16.6667 11.1334 14.8667 9.33339 12.6667 9.33339C10.4667 9.33339 8.66665 11.1334 8.66665 13.3334C8.66665 15.5334 10.4667 17.3334 12.6667 17.3334C14.8667 17.3334 16.6667 15.5334 16.6667 13.3334ZM12.6667 14.6667C11.9333 14.6667 11.3333 14.0667 11.3333 13.3334C11.3333 12.6001 11.9333 12.0001 12.6667 12.0001C13.4 12.0001 14 12.6001 14 13.3334C14 14.0667 13.4 14.6667 12.6667 14.6667ZM21.3333 17.3334C22.8133 17.3334 24 16.1467 24 14.6667C24 13.1867 22.8133 12.0001 21.3333 12.0001C19.8533 12.0001 18.6533 13.1867 18.6667 14.6667C18.6667 16.1467 19.8533 17.3334 21.3333 17.3334ZM15.9867 2.68005C8.62665 2.68005 2.65332 8.65339 2.65332 16.0134C2.65332 23.3734 8.62665 29.3467 15.9867 29.3467C23.3467 29.3467 29.32 23.3734 29.32 16.0134C29.32 8.65339 23.3467 2.68005 15.9867 2.68005ZM7.78665 22.8267C8.69332 22.1067 10.8133 21.3467 12.6667 21.3467C12.76 21.3467 12.8667 21.3601 12.9733 21.3601C13.2933 20.5067 13.8667 19.6401 14.7067 18.8801C13.96 18.7467 13.2533 18.6667 12.6667 18.6667C10.9333 18.6667 8.14665 19.2667 6.35999 20.5734C5.69332 19.1867 5.31999 17.6401 5.31999 16.0001C5.31999 10.1201 10.1067 5.33339 15.9867 5.33339C21.8667 5.33339 26.6533 10.1201 26.6533 16.0001C26.6533 17.6001 26.2933 19.1201 25.6533 20.4934C24.32 19.7067 22.5067 19.3334 21.3333 19.3334C19.3067 19.3334 15.3333 20.4134 15.3333 22.9334V26.6401C12.3067 26.4667 9.61332 25.0267 7.78665 22.8267Z" fill="#008DFF"/>
</svg>
