<svg width="34" height="34" viewBox="0 0 34 34" fill="none" xmlns="http://www.w3.org/2000/svg">
<path d="M28.356 4.84636C25.2368 1.71968 21.0828 0 16.6682 0C7.55615 0 0.141445 7.41471 0.141445 16.5268C0.141445 19.4375 0.900783 22.2813 2.34501 24.7901L0 33.3513L8.76216 31.0509C11.1742 32.3686 13.8914 33.061 16.6608 33.061H16.6682C25.7728 33.061 33.3513 25.6462 33.3513 16.5342C33.3513 12.1196 31.4753 7.97304 28.356 4.84636ZM16.6682 30.2767C14.1966 30.2767 11.7772 29.6142 9.67039 28.3635L9.17161 28.0657L3.97535 29.428L5.36003 24.3584L5.03247 23.8372C3.65524 21.6486 2.93313 19.1249 2.93313 16.5268C2.93313 8.95572 9.09716 2.79168 16.6756 2.79168C20.3458 2.79168 23.7926 4.22102 26.3833 6.81915C28.9739 9.41727 30.5671 12.8641 30.5596 16.5342C30.5596 24.1127 24.2392 30.2767 16.6682 30.2767ZM24.202 19.9884C23.7926 19.78 21.7602 18.7824 21.3806 18.6484C21.0009 18.507 20.7254 18.44 20.45 18.8569C20.1746 19.2738 19.3854 20.1969 19.1398 20.4798C18.9015 20.7552 18.6559 20.7924 18.2464 20.584C15.8195 19.3705 14.2264 18.4177 12.6258 15.6706C12.2015 14.9411 13.0502 14.9932 13.8393 13.415C13.9733 13.1395 13.9063 12.9013 13.8021 12.6928C13.6979 12.4844 12.8715 10.4521 12.5291 9.62572C12.1941 8.82171 11.8516 8.93338 11.5985 8.91849C11.3603 8.9036 11.0848 8.9036 10.8094 8.9036C10.5339 8.9036 10.0873 9.00783 9.70761 9.41727C9.32794 9.83416 8.26338 10.8317 8.26338 12.8641C8.26338 14.8964 9.74483 16.8618 9.94583 17.1372C10.1543 17.4127 12.8566 21.5816 17.0032 23.3757C19.6237 24.5072 20.651 24.604 21.9612 24.4105C22.7578 24.2914 24.403 23.4129 24.7455 22.4451C25.0879 21.4773 25.0879 20.651 24.9837 20.4798C24.8869 20.2937 24.6115 20.1894 24.202 19.9884Z" fill="#fff"/>
</svg>
