<svg width="31" height="29" viewBox="0 0 31 29" fill="none" xmlns="http://www.w3.org/2000/svg">
<path d="M22.6884 17.3792C22.3098 17.1952 20.4662 16.3315 20.1216 16.2083C19.777 16.0905 19.5269 16.0288 19.2758 16.3923C19.0303 16.7466 18.3072 17.5577 18.0863 17.7942C17.8654 18.0308 17.6483 18.0489 17.2754 17.8885C16.8969 17.7045 15.6876 17.3266 14.2517 16.0905C13.1303 15.1326 12.3836 13.9526 12.1617 13.5892C11.9408 13.2303 12.1372 13.0273 12.3241 12.8479C12.4959 12.683 12.7026 12.4328 12.8943 12.2153C13.0765 11.9978 13.135 11.8519 13.2681 11.6163C13.3908 11.3617 13.3276 11.1632 13.2341 10.9838C13.1406 10.8043 12.3883 9.02534 12.0739 8.31666C11.7737 7.61341 11.4594 7.70312 11.2281 7.70312C11.0119 7.68409 10.7608 7.68409 10.5106 7.68409C10.2605 7.68409 9.85172 7.77381 9.50716 8.11819C9.16259 8.48159 8.18932 9.34978 8.18932 11.1061C8.18932 12.8669 9.53642 14.5707 9.72333 14.8253C9.91497 15.061 12.3732 18.686 16.1445 20.2438C17.0441 20.6072 17.7427 20.8247 18.2883 21.0042C19.188 21.2778 20.0093 21.2398 20.6578 21.1501C21.3752 21.0368 22.88 20.2764 23.1953 19.4273C23.5153 18.5727 23.5153 17.8649 23.4219 17.7045C23.3284 17.5396 23.083 17.4498 22.7044 17.2894L22.6884 17.3792ZM15.849 26.2812H15.8292C13.5966 26.2812 11.3895 25.7003 9.46184 24.6147L9.00966 24.3555L4.28961 25.5354L5.55836 21.1265L5.25345 20.6734C4.00685 18.7706 3.34551 16.5684 3.3456 14.3206C3.3456 7.74119 8.95585 2.37437 15.8585 2.37437C19.2021 2.37437 22.3391 3.625 24.6991 5.89062C25.8633 6.99498 26.7868 8.31084 27.4157 9.76145C28.0445 11.2121 28.3662 12.7684 28.3619 14.3396C28.3524 20.9144 22.7469 26.2812 15.8537 26.2812H15.849ZM26.4937 4.16784C23.622 1.50528 19.846 0 15.8292 0C7.54456 0 0.798665 6.44797 0.793945 14.3722C0.793945 16.9025 1.48213 19.3711 2.79997 21.5561L0.666504 29L8.6415 27.0035C10.8508 28.147 13.3202 28.7485 15.8301 28.7544H15.8349C24.1242 28.7544 30.8701 22.3064 30.8748 14.3767C30.8748 10.5397 29.3163 6.92828 26.4748 4.21406L26.4937 4.16784Z" fill="#000064"/>
</svg>
